<svg id="visual" viewBox="0 0 960 540" width="960" height="540" xmlns="http://www.w3.org/2000/svg" xmlns:xlink="http://www.w3.org/1999/xlink" version="1.1"><rect x="0" y="0" width="960" height="540" fill="#001220"></rect><path d="M0 177L22.8 175.2C45.7 173.3 91.3 169.7 137 175.8C182.7 182 228.3 198 274 194.8C319.7 191.7 365.3 169.3 411.2 166.2C457 163 503 179 548.8 178.8C594.7 178.7 640.3 162.3 686 155C731.7 147.7 777.3 149.3 823 154.7C868.7 160 914.3 169 937.2 173.5L960 178L960 0L937.2 0C914.3 0 868.7 0 823 0C777.3 0 731.7 0 686 0C640.3 0 594.7 0 548.8 0C503 0 457 0 411.2 0C365.3 0 319.7 0 274 0C228.3 0 182.7 0 137 0C91.3 0 45.7 0 22.8 0L0 0Z" fill="#a683e3"></path><path d="M0 173L22.8 169C45.7 165 91.3 157 137 148.5C182.7 140 228.3 131 274 125.2C319.7 119.3 365.3 116.7 411.2 123.3C457 130 503 146 548.8 151.5C594.7 157 640.3 152 686 150.2C731.7 148.3 777.3 149.7 823 145.5C868.7 141.3 914.3 131.7 937.2 126.8L960 122L960 0L937.2 0C914.3 0 868.7 0 823 0C777.3 0 731.7 0 686 0C640.3 0 594.7 0 548.8 0C503 0 457 0 411.2 0C365.3 0 319.7 0 274 0C228.3 0 182.7 0 137 0C91.3 0 45.7 0 22.8 0L0 0Z" fill="#ab7deb"></path><path d="M0 124L22.8 124.5C45.7 125 91.3 126 137 123.8C182.7 121.7 228.3 116.3 274 116.5C319.7 116.7 365.3 122.3 411.2 126.8C457 131.3 503 134.7 548.8 128.8C594.7 123 640.3 108 686 103C731.7 98 777.3 103 823 107C868.7 111 914.3 114 937.2 115.5L960 117L960 0L937.2 0C914.3 0 868.7 0 823 0C777.3 0 731.7 0 686 0C640.3 0 594.7 0 548.8 0C503 0 457 0 411.2 0C365.3 0 319.7 0 274 0C228.3 0 182.7 0 137 0C91.3 0 45.7 0 22.8 0L0 0Z" fill="#b176f2"></path><path d="M0 96L22.8 96.3C45.7 96.7 91.3 97.3 137 91C182.7 84.7 228.3 71.3 274 70.7C319.7 70 365.3 82 411.2 84.5C457 87 503 80 548.8 74C594.7 68 640.3 63 686 64.8C731.7 66.7 777.3 75.3 823 75.8C868.7 76.3 914.3 68.7 937.2 64.8L960 61L960 0L937.2 0C914.3 0 868.7 0 823 0C777.3 0 731.7 0 686 0C640.3 0 594.7 0 548.8 0C503 0 457 0 411.2 0C365.3 0 319.7 0 274 0C228.3 0 182.7 0 137 0C91.3 0 45.7 0 22.8 0L0 0Z" fill="#b86ef8"></path><path d="M0 34L22.8 33.2C45.7 32.3 91.3 30.7 137 30.5C182.7 30.3 228.3 31.7 274 36.2C319.7 40.7 365.3 48.3 411.2 47.7C457 47 503 38 548.8 36.2C594.7 34.3 640.3 39.7 686 40.3C731.7 41 777.3 37 823 37.3C868.7 37.7 914.3 42.3 937.2 44.7L960 47L960 0L937.2 0C914.3 0 868.7 0 823 0C777.3 0 731.7 0 686 0C640.3 0 594.7 0 548.8 0C503 0 457 0 411.2 0C365.3 0 319.7 0 274 0C228.3 0 182.7 0 137 0C91.3 0 45.7 0 22.8 0L0 0Z" fill="#c064fe"></path></svg>